<svg width="1280" height="420" viewBox="0 0 1280 420" fill="none" xmlns="http://www.w3.org/2000/svg" role="img" aria-labelledby="title desc">
  <title id="title">CodeCrafters Lab</title>
  <desc id="desc">Modern dark technology banner for CodeCrafters Lab, building scalable enterprise solutions.</desc>
  <defs>
    <linearGradient id="bg" x1="0" y1="0" x2="1280" y2="420" gradientUnits="userSpaceOnUse">
      <stop stop-color="#0D1117"/>
      <stop offset="0.48" stop-color="#101827"/>
      <stop offset="1" stop-color="#07111E"/>
    </linearGradient>
    <linearGradient id="accent" x1="252" y1="94" x2="1008" y2="338" gradientUnits="userSpaceOnUse">
      <stop stop-color="#38BDF8"/>
      <stop offset="0.52" stop-color="#7C3AED"/>
      <stop offset="1" stop-color="#2DD4BF"/>
    </linearGradient>
    <radialGradient id="glowBlue" cx="0" cy="0" r="1" gradientUnits="userSpaceOnUse" gradientTransform="translate(923 178) rotate(90) scale(188 264)">
      <stop stop-color="#2563EB" stop-opacity="0.38"/>
      <stop offset="1" stop-color="#2563EB" stop-opacity="0"/>
    </radialGradient>
    <radialGradient id="glowPurple" cx="0" cy="0" r="1" gradientUnits="userSpaceOnUse" gradientTransform="translate(427 227) rotate(90) scale(180 280)">
      <stop stop-color="#7C3AED" stop-opacity="0.34"/>
      <stop offset="1" stop-color="#7C3AED" stop-opacity="0"/>
    </radialGradient>
    <filter id="softGlow" x="-40" y="-40" width="1360" height="500" filterUnits="userSpaceOnUse" color-interpolation-filters="sRGB">
      <feGaussianBlur stdDeviation="14" result="blur"/>
      <feColorMatrix in="blur" type="matrix" values="0 0 0 0 0.18 0 0 0 0 0.78 0 0 0 0 1 0 0 0 0.42 0"/>
      <feBlend in2="SourceGraphic" mode="screen"/>
    </filter>
    <pattern id="grid" width="42" height="42" patternUnits="userSpaceOnUse">
      <path d="M42 0H0V42" stroke="#94A3B8" stroke-opacity="0.075" stroke-width="1"/>
    </pattern>
  </defs>
  <rect width="1280" height="420" rx="26" fill="url(#bg)"/>
  <rect width="1280" height="420" rx="26" fill="url(#grid)"/>
  <rect width="1280" height="420" rx="26" fill="url(#glowBlue)"/>
  <rect width="1280" height="420" rx="26" fill="url(#glowPurple)"/>
  <g opacity="0.26" font-family="Consolas, 'Courier New', monospace" font-size="15" fill="#8BDCFB">
    <text x="71" y="78">public sealed class EnterpriseSolution : IScalableSystem</text>
    <text x="71" y="105">{ api.MapGroup("/v1").RequireAuthorization(); }</text>
    <text x="806" y="328">await graphClient.CompositeAsync(nodes, cancellationToken);</text>
    <text x="806" y="355">SELECT KPI, Trend FROM Analytics WHERE Status = 'Live';</text>
  </g>
  <g opacity="0.72" filter="url(#softGlow)">
    <path d="M744 122H858C883 122 888 161 912 161H1061" stroke="url(#accent)" stroke-width="2"/>
    <path d="M744 211H838C872 211 869 257 906 257H1132" stroke="url(#accent)" stroke-width="2"/>
    <path d="M774 303H900C929 303 932 284 958 284H1181" stroke="url(#accent)" stroke-width="2"/>
    <path d="M920 161V257" stroke="#38BDF8" stroke-opacity="0.55" stroke-width="2"/>
    <path d="M1012 257V284" stroke="#2DD4BF" stroke-opacity="0.5" stroke-width="2"/>
  </g>
  <g>
    <circle cx="744" cy="122" r="5" fill="#38BDF8"/>
    <circle cx="912" cy="161" r="6" fill="#7C3AED"/>
    <circle cx="1061" cy="161" r="5" fill="#2DD4BF"/>
    <circle cx="744" cy="211" r="5" fill="#38BDF8"/>
    <circle cx="906" cy="257" r="6" fill="#7C3AED"/>
    <circle cx="1132" cy="257" r="5" fill="#2DD4BF"/>
    <circle cx="774" cy="303" r="5" fill="#38BDF8"/>
    <circle cx="958" cy="284" r="6" fill="#7C3AED"/>
    <circle cx="1181" cy="284" r="5" fill="#2DD4BF"/>
  </g>
  <g opacity="0.88">
    <rect x="780" y="86" width="118" height="72" rx="14" fill="#101827" stroke="#38BDF8" stroke-opacity="0.35"/>
    <rect x="940" y="125" width="142" height="72" rx="14" fill="#111827" stroke="#7C3AED" stroke-opacity="0.42"/>
    <rect x="866" y="222" width="133" height="72" rx="14" fill="#101827" stroke="#2DD4BF" stroke-opacity="0.36"/>
    <rect x="1038" y="252" width="118" height="72" rx="14" fill="#111827" stroke="#38BDF8" stroke-opacity="0.32"/>
    <path d="M811 122H867M811 142H849" stroke="#94A3B8" stroke-opacity="0.55" stroke-width="3" stroke-linecap="round"/>
    <path d="M972 161H1050M972 181H1022" stroke="#94A3B8" stroke-opacity="0.55" stroke-width="3" stroke-linecap="round"/>
    <path d="M898 258H966M898 278H944" stroke="#94A3B8" stroke-opacity="0.55" stroke-width="3" stroke-linecap="round"/>
    <path d="M1068 288H1124M1068 308H1105" stroke="#94A3B8" stroke-opacity="0.55" stroke-width="3" stroke-linecap="round"/>
  </g>
  <g transform="translate(80 100)">
    <rect x="0" y="0" width="82" height="82" rx="20" fill="#101827" stroke="url(#accent)" stroke-width="2"/>
    <path d="M34 27L20 41L34 55" stroke="#38BDF8" stroke-width="5" stroke-linecap="round" stroke-linejoin="round"/>
    <path d="M51 27L65 41L51 55" stroke="#2DD4BF" stroke-width="5" stroke-linecap="round" stroke-linejoin="round"/>
    <path d="M46 22L38 60" stroke="#7C3AED" stroke-width="5" stroke-linecap="round"/>
  </g>
  <text x="80" y="238" fill="#F8FAFC" font-family="Inter, Segoe UI, Arial, sans-serif" font-size="58" font-weight="800" letter-spacing="0">CodeCrafters Lab</text>
  <text x="84" y="284" fill="#CBD5E1" font-family="Inter, Segoe UI, Arial, sans-serif" font-size="25" font-weight="500" letter-spacing="0">Building scalable enterprise solutions</text>
  <g transform="translate(84 318)">
    <rect x="0" y="0" width="92" height="30" rx="15" fill="#38BDF8" fill-opacity="0.11" stroke="#38BDF8" stroke-opacity="0.35"/>
    <rect x="108" y="0" width="74" height="30" rx="15" fill="#7C3AED" fill-opacity="0.13" stroke="#7C3AED" stroke-opacity="0.4"/>
    <rect x="198" y="0" width="102" height="30" rx="15" fill="#2DD4BF" fill-opacity="0.11" stroke="#2DD4BF" stroke-opacity="0.35"/>
    <text x="22" y="20" fill="#BAE6FD" font-family="Inter, Segoe UI, Arial, sans-serif" font-size="13" font-weight="700">.NET</text>
    <text x="130" y="20" fill="#DDD6FE" font-family="Inter, Segoe UI, Arial, sans-serif" font-size="13" font-weight="700">APIs</text>
    <text x="220" y="20" fill="#99F6E4" font-family="Inter, Segoe UI, Arial, sans-serif" font-size="13" font-weight="700">Enterprise</text>
  </g>
</svg>
